<mxfile host="app.diagrams.net" agent="Mozilla/5.0 (Windows NT 10.0; Win64; x64) AppleWebKit/537.36 (KHTML, like Gecko) Chrome/136.0.0.0 Safari/537.36" version="27.1.1">
  <diagram name="Page-1" id="x5G31EqN-TlIDT_WUVZL">
    <mxGraphModel dx="2691" dy="2276" grid="1" gridSize="10" guides="1" tooltips="1" connect="1" arrows="1" fold="1" page="1" pageScale="1" pageWidth="850" pageHeight="1100" math="0" shadow="0">
      <root>
        <mxCell id="0" />
        <mxCell id="1" parent="0" />
        <mxCell id="-zPG0wEFw7UELv2L5zX0-1" value="Manager" style="shape=umlActor;verticalLabelPosition=bottom;verticalAlign=top;html=1;" parent="1" vertex="1">
          <mxGeometry x="30" y="140" width="30" height="60" as="geometry" />
        </mxCell>
        <mxCell id="-zPG0wEFw7UELv2L5zX0-2" value="" style="shape=umlBoundary;whiteSpace=wrap;html=1;" parent="1" vertex="1">
          <mxGeometry x="390" y="50" width="100" height="80" as="geometry" />
        </mxCell>
        <mxCell id="-zPG0wEFw7UELv2L5zX0-3" value="Receipts Management Screen" style="text;html=1;align=center;verticalAlign=middle;resizable=1;points=[];autosize=1;strokeColor=none;fillColor=none;movable=1;rotatable=1;deletable=1;editable=1;locked=0;connectable=1;" parent="1" vertex="1">
          <mxGeometry x="360" y="20" width="180" height="30" as="geometry" />
        </mxCell>
        <mxCell id="-zPG0wEFw7UELv2L5zX0-4" value="Check&lt;div&gt;Data&lt;/div&gt;" style="ellipse;shape=umlControl;whiteSpace=wrap;html=1;" parent="1" vertex="1">
          <mxGeometry x="570" y="50" width="70" height="80" as="geometry" />
        </mxCell>
        <mxCell id="-zPG0wEFw7UELv2L5zX0-10" value="" style="endArrow=none;html=1;rounded=0;exitX=1;exitY=0.3333333333333333;exitDx=0;exitDy=0;exitPerimeter=0;entryX=0.027;entryY=0.509;entryDx=0;entryDy=0;entryPerimeter=0;" parent="1" source="-zPG0wEFw7UELv2L5zX0-1" target="-zPG0wEFw7UELv2L5zX0-2" edge="1">
          <mxGeometry width="50" height="50" relative="1" as="geometry">
            <mxPoint x="320" y="420" as="sourcePoint" />
            <mxPoint x="220" y="150" as="targetPoint" />
          </mxGeometry>
        </mxCell>
        <mxCell id="-zPG0wEFw7UELv2L5zX0-12" value="" style="endArrow=none;html=1;rounded=0;entryX=-0.001;entryY=0.496;entryDx=0;entryDy=0;entryPerimeter=0;exitX=1;exitY=1;exitDx=0;exitDy=0;exitPerimeter=0;" parent="1" source="-zPG0wEFw7UELv2L5zX0-1" target="-zPG0wEFw7UELv2L5zX0-25" edge="1">
          <mxGeometry width="50" height="50" relative="1" as="geometry">
            <mxPoint x="90" y="630" as="sourcePoint" />
            <mxPoint x="170" y="520" as="targetPoint" />
          </mxGeometry>
        </mxCell>
        <mxCell id="-zPG0wEFw7UELv2L5zX0-15" value="Fill Form and&amp;nbsp;&lt;div&gt;Upload Receipts&lt;/div&gt;" style="text;html=1;align=center;verticalAlign=middle;resizable=0;points=[];autosize=1;strokeColor=none;fillColor=none;rotation=-15;" parent="1" vertex="1">
          <mxGeometry x="130" y="90" width="110" height="40" as="geometry" />
        </mxCell>
        <mxCell id="-zPG0wEFw7UELv2L5zX0-18" value="List of Saved Receipts" style="ellipse;shape=umlEntity;whiteSpace=wrap;html=1;" parent="1" vertex="1">
          <mxGeometry x="675" y="-160" width="100" height="100" as="geometry" />
        </mxCell>
        <mxCell id="-zPG0wEFw7UELv2L5zX0-20" value="Updates" style="ellipse;shape=umlControl;whiteSpace=wrap;html=1;" parent="1" vertex="1">
          <mxGeometry x="690" y="50" width="70" height="80" as="geometry" />
        </mxCell>
        <mxCell id="-zPG0wEFw7UELv2L5zX0-25" value="" style="shape=umlBoundary;whiteSpace=wrap;html=1;" parent="1" vertex="1">
          <mxGeometry x="250" y="410" width="100" height="80" as="geometry" />
        </mxCell>
        <mxCell id="-zPG0wEFw7UELv2L5zX0-26" value="Quick Preview Screen" style="text;html=1;align=center;verticalAlign=middle;resizable=0;points=[];autosize=1;strokeColor=none;fillColor=none;" parent="1" vertex="1">
          <mxGeometry x="240" y="380" width="140" height="30" as="geometry" />
        </mxCell>
        <mxCell id="-zPG0wEFw7UELv2L5zX0-27" value="Checks and confirms the issue of Common Charges" style="text;html=1;align=center;verticalAlign=middle;resizable=0;points=[];autosize=1;strokeColor=none;fillColor=none;rotation=55;" parent="1" vertex="1">
          <mxGeometry x="10" y="288" width="300" height="30" as="geometry" />
        </mxCell>
        <mxCell id="-zPG0wEFw7UELv2L5zX0-30" style="edgeStyle=orthogonalEdgeStyle;rounded=0;orthogonalLoop=1;jettySize=auto;html=1;entryX=0.002;entryY=0.53;entryDx=0;entryDy=0;entryPerimeter=0;" parent="1" source="-zPG0wEFw7UELv2L5zX0-28" target="-zPG0wEFw7UELv2L5zX0-34" edge="1">
          <mxGeometry relative="1" as="geometry">
            <mxPoint x="690" y="450" as="targetPoint" />
            <Array as="points">
              <mxPoint x="710" y="450" />
            </Array>
          </mxGeometry>
        </mxCell>
        <mxCell id="-zPG0wEFw7UELv2L5zX0-32" value="Yes" style="edgeLabel;html=1;align=center;verticalAlign=middle;resizable=0;points=[];" parent="-zPG0wEFw7UELv2L5zX0-30" vertex="1" connectable="0">
          <mxGeometry x="-0.1442" y="5" relative="1" as="geometry">
            <mxPoint x="-26" y="-5" as="offset" />
          </mxGeometry>
        </mxCell>
        <mxCell id="-zPG0wEFw7UELv2L5zX0-28" value="Confirm" style="ellipse;shape=umlControl;whiteSpace=wrap;html=1;" parent="1" vertex="1">
          <mxGeometry x="450" y="405" width="90" height="90" as="geometry" />
        </mxCell>
        <mxCell id="-zPG0wEFw7UELv2L5zX0-33" value="No" style="text;html=1;align=center;verticalAlign=middle;resizable=0;points=[];autosize=1;strokeColor=light-dark(#000000,#FF0000);fillColor=none;" parent="1" vertex="1">
          <mxGeometry x="490" y="538" width="40" height="30" as="geometry" />
        </mxCell>
        <mxCell id="-zPG0wEFw7UELv2L5zX0-34" value="Send Notification" style="ellipse;shape=umlControl;whiteSpace=wrap;html=1;" parent="1" vertex="1">
          <mxGeometry x="680" y="390" width="90" height="110" as="geometry" />
        </mxCell>
        <mxCell id="-zPG0wEFw7UELv2L5zX0-40" value="Update" style="ellipse;shape=umlControl;whiteSpace=wrap;html=1;" parent="1" vertex="1">
          <mxGeometry x="870" y="390" width="90" height="110" as="geometry" />
        </mxCell>
        <mxCell id="-zPG0wEFw7UELv2L5zX0-43" value="" style="shape=umlBoundary;whiteSpace=wrap;html=1;" parent="1" vertex="1">
          <mxGeometry x="1195" y="410" width="100" height="80" as="geometry" />
        </mxCell>
        <mxCell id="-zPG0wEFw7UELv2L5zX0-45" value="Tenant Notification Screen" style="text;html=1;align=center;verticalAlign=middle;resizable=0;points=[];autosize=1;strokeColor=none;fillColor=none;" parent="1" vertex="1">
          <mxGeometry x="1165" y="380" width="160" height="30" as="geometry" />
        </mxCell>
        <mxCell id="-zPG0wEFw7UELv2L5zX0-47" value="Tenant" style="shape=umlActor;verticalLabelPosition=bottom;verticalAlign=top;html=1;" parent="1" vertex="1">
          <mxGeometry x="1365" y="430" width="30" height="60" as="geometry" />
        </mxCell>
        <mxCell id="-zPG0wEFw7UELv2L5zX0-50" value="Cancel Common Charge" style="ellipse;shape=umlControl;whiteSpace=wrap;html=1;strokeColor=light-dark(#000000,#FF0000);" parent="1" vertex="1">
          <mxGeometry x="460" y="660" width="70" height="70" as="geometry" />
        </mxCell>
        <mxCell id="r_laxhmClGLnwnzQ-l_1-6" value="" style="endArrow=none;html=1;rounded=0;entryX=0.991;entryY=0.508;entryDx=0;entryDy=0;entryPerimeter=0;exitX=-0.029;exitY=0.623;exitDx=0;exitDy=0;exitPerimeter=0;" parent="1" source="r_laxhmClGLnwnzQ-l_1-10" target="r_laxhmClGLnwnzQ-l_1-7" edge="1">
          <mxGeometry width="50" height="50" relative="1" as="geometry">
            <mxPoint x="640" y="249" as="sourcePoint" />
            <mxPoint x="610" y="270" as="targetPoint" />
            <Array as="points" />
          </mxGeometry>
        </mxCell>
        <mxCell id="r_laxhmClGLnwnzQ-l_1-7" value="" style="shape=umlBoundary;whiteSpace=wrap;html=1;" parent="1" vertex="1">
          <mxGeometry x="230" y="208" width="100" height="80" as="geometry" />
        </mxCell>
        <mxCell id="r_laxhmClGLnwnzQ-l_1-8" value="" style="endArrow=none;html=1;rounded=0;entryX=-0.009;entryY=0.523;entryDx=0;entryDy=0;entryPerimeter=0;exitX=1;exitY=0.3333333333333333;exitDx=0;exitDy=0;exitPerimeter=0;" parent="1" source="-zPG0wEFw7UELv2L5zX0-1" target="r_laxhmClGLnwnzQ-l_1-7" edge="1">
          <mxGeometry width="50" height="50" relative="1" as="geometry">
            <mxPoint x="620" y="236" as="sourcePoint" />
            <mxPoint x="739.8300000000002" y="385" as="targetPoint" />
          </mxGeometry>
        </mxCell>
        <mxCell id="r_laxhmClGLnwnzQ-l_1-9" value="Common Charges Screen" style="text;html=1;align=center;verticalAlign=middle;resizable=0;points=[];autosize=1;strokeColor=none;fillColor=none;" parent="1" vertex="1">
          <mxGeometry x="205" y="178" width="160" height="30" as="geometry" />
        </mxCell>
        <mxCell id="r_laxhmClGLnwnzQ-l_1-10" value="Display" style="ellipse;shape=umlControl;whiteSpace=wrap;html=1;" parent="1" vertex="1">
          <mxGeometry x="650" y="200" width="70" height="80" as="geometry" />
        </mxCell>
        <mxCell id="r_laxhmClGLnwnzQ-l_1-11" value="" style="endArrow=none;html=1;rounded=0;entryX=0.091;entryY=0.268;entryDx=0;entryDy=0;entryPerimeter=0;exitX=0.739;exitY=0.968;exitDx=0;exitDy=0;exitPerimeter=0;" parent="1" source="-zPG0wEFw7UELv2L5zX0-20" target="bUZhal4Mzn5xRgH7IDeU-9" edge="1">
          <mxGeometry width="50" height="50" relative="1" as="geometry">
            <mxPoint x="658" y="268" as="sourcePoint" />
            <mxPoint x="339" y="259" as="targetPoint" />
            <Array as="points" />
          </mxGeometry>
        </mxCell>
        <mxCell id="r_laxhmClGLnwnzQ-l_1-12" value="Public Common Charges" style="text;html=1;align=center;verticalAlign=middle;resizable=0;points=[];autosize=1;strokeColor=none;fillColor=none;rotation=30;" parent="1" vertex="1">
          <mxGeometry x="75" y="178" width="160" height="30" as="geometry" />
        </mxCell>
        <mxCell id="r_laxhmClGLnwnzQ-l_1-15" value="" style="endArrow=none;html=1;rounded=0;entryX=0.967;entryY=0.714;entryDx=0;entryDy=0;entryPerimeter=0;exitX=0.002;exitY=0.462;exitDx=0;exitDy=0;exitPerimeter=0;" parent="1" source="r_laxhmClGLnwnzQ-l_1-17" target="r_laxhmClGLnwnzQ-l_1-7" edge="1">
          <mxGeometry width="50" height="50" relative="1" as="geometry">
            <mxPoint x="400.2800000000002" y="301.0799999999999" as="sourcePoint" />
            <mxPoint x="339" y="259" as="targetPoint" />
            <Array as="points" />
          </mxGeometry>
        </mxCell>
        <mxCell id="r_laxhmClGLnwnzQ-l_1-17" value="Display" style="ellipse;shape=umlControl;whiteSpace=wrap;html=1;" parent="1" vertex="1">
          <mxGeometry x="410" y="288" width="70" height="80" as="geometry" />
        </mxCell>
        <mxCell id="r_laxhmClGLnwnzQ-l_1-18" value="" style="endArrow=none;html=1;rounded=0;entryX=0.998;entryY=0.486;entryDx=0;entryDy=0;entryPerimeter=0;exitX=0.031;exitY=0.711;exitDx=0;exitDy=0;exitPerimeter=0;" parent="1" source="bUZhal4Mzn5xRgH7IDeU-9" target="r_laxhmClGLnwnzQ-l_1-10" edge="1">
          <mxGeometry width="50" height="50" relative="1" as="geometry">
            <mxPoint x="869.9999999999998" y="311" as="sourcePoint" />
            <mxPoint x="768.1800000000001" y="311" as="targetPoint" />
            <Array as="points" />
          </mxGeometry>
        </mxCell>
        <mxCell id="r_laxhmClGLnwnzQ-l_1-20" value="" style="endArrow=none;html=1;rounded=0;entryX=0.055;entryY=0.791;entryDx=0;entryDy=0;entryPerimeter=0;exitX=0.959;exitY=0.275;exitDx=0;exitDy=0;exitPerimeter=0;" parent="1" source="-zPG0wEFw7UELv2L5zX0-25" target="r_laxhmClGLnwnzQ-l_1-17" edge="1">
          <mxGeometry width="50" height="50" relative="1" as="geometry">
            <mxPoint x="510" y="350" as="sourcePoint" />
            <mxPoint x="479" y="321" as="targetPoint" />
            <Array as="points" />
          </mxGeometry>
        </mxCell>
        <mxCell id="r_laxhmClGLnwnzQ-l_1-21" value="Display" style="ellipse;shape=umlControl;whiteSpace=wrap;html=1;" parent="1" vertex="1">
          <mxGeometry x="1020" y="385" width="90" height="110" as="geometry" />
        </mxCell>
        <mxCell id="r_laxhmClGLnwnzQ-l_1-22" value="" style="endArrow=none;html=1;rounded=0;entryX=-0.004;entryY=0.5;entryDx=0;entryDy=0;entryPerimeter=0;exitX=1;exitY=0.582;exitDx=0;exitDy=0;exitPerimeter=0;" parent="1" source="r_laxhmClGLnwnzQ-l_1-21" target="-zPG0wEFw7UELv2L5zX0-43" edge="1">
          <mxGeometry width="50" height="50" relative="1" as="geometry">
            <mxPoint x="990" y="695" as="sourcePoint" />
            <mxPoint x="1215" y="590" as="targetPoint" />
            <Array as="points" />
          </mxGeometry>
        </mxCell>
        <mxCell id="bUZhal4Mzn5xRgH7IDeU-1" value="" style="endArrow=none;html=1;rounded=0;entryX=1;entryY=0.542;entryDx=0;entryDy=0;entryPerimeter=0;exitX=-0.014;exitY=0.55;exitDx=0;exitDy=0;exitPerimeter=0;" parent="1" source="-zPG0wEFw7UELv2L5zX0-4" target="-zPG0wEFw7UELv2L5zX0-2" edge="1">
          <mxGeometry width="50" height="50" relative="1" as="geometry">
            <mxPoint x="548" y="-48" as="sourcePoint" />
            <mxPoint x="472" y="-80" as="targetPoint" />
            <Array as="points" />
          </mxGeometry>
        </mxCell>
        <mxCell id="bUZhal4Mzn5xRgH7IDeU-2" value="" style="endArrow=none;html=1;rounded=0;exitX=0.009;exitY=0.5;exitDx=0;exitDy=0;exitPerimeter=0;entryX=0.998;entryY=0.504;entryDx=0;entryDy=0;entryPerimeter=0;" parent="1" source="-zPG0wEFw7UELv2L5zX0-20" target="-zPG0wEFw7UELv2L5zX0-4" edge="1">
          <mxGeometry width="50" height="50" relative="1" as="geometry">
            <mxPoint x="640" y="82" as="sourcePoint" />
            <mxPoint x="532" y="93" as="targetPoint" />
            <Array as="points" />
          </mxGeometry>
        </mxCell>
        <mxCell id="bUZhal4Mzn5xRgH7IDeU-3" value="" style="endArrow=none;html=1;rounded=0;entryX=1.003;entryY=0.501;entryDx=0;entryDy=0;entryPerimeter=0;exitX=0;exitY=0.3333333333333333;exitDx=0;exitDy=0;exitPerimeter=0;" parent="1" source="-zPG0wEFw7UELv2L5zX0-47" target="-zPG0wEFw7UELv2L5zX0-43" edge="1">
          <mxGeometry width="50" height="50" relative="1" as="geometry">
            <mxPoint x="1486" y="412" as="sourcePoint" />
            <mxPoint x="1410" y="380" as="targetPoint" />
            <Array as="points" />
          </mxGeometry>
        </mxCell>
        <mxCell id="bUZhal4Mzn5xRgH7IDeU-4" value="" style="endArrow=none;html=1;rounded=0;entryX=1.001;entryY=0.533;entryDx=0;entryDy=0;entryPerimeter=0;exitX=0;exitY=0.584;exitDx=0;exitDy=0;exitPerimeter=0;" parent="1" source="r_laxhmClGLnwnzQ-l_1-21" target="-zPG0wEFw7UELv2L5zX0-40" edge="1">
          <mxGeometry width="50" height="50" relative="1" as="geometry">
            <mxPoint x="1056" y="350" as="sourcePoint" />
            <mxPoint x="980" y="318" as="targetPoint" />
            <Array as="points" />
          </mxGeometry>
        </mxCell>
        <mxCell id="bUZhal4Mzn5xRgH7IDeU-5" value="" style="endArrow=none;html=1;rounded=0;entryX=0.999;entryY=0.539;entryDx=0;entryDy=0;entryPerimeter=0;exitX=0.001;exitY=0.544;exitDx=0;exitDy=0;exitPerimeter=0;" parent="1" source="-zPG0wEFw7UELv2L5zX0-40" target="-zPG0wEFw7UELv2L5zX0-34" edge="1">
          <mxGeometry width="50" height="50" relative="1" as="geometry">
            <mxPoint x="966" y="212" as="sourcePoint" />
            <mxPoint x="890" y="180" as="targetPoint" />
            <Array as="points" />
          </mxGeometry>
        </mxCell>
        <mxCell id="bUZhal4Mzn5xRgH7IDeU-6" value="" style="endArrow=none;html=1;rounded=0;entryX=1.004;entryY=0.502;entryDx=0;entryDy=0;entryPerimeter=0;exitX=0.002;exitY=0.497;exitDx=0;exitDy=0;exitPerimeter=0;" parent="1" source="-zPG0wEFw7UELv2L5zX0-28" target="-zPG0wEFw7UELv2L5zX0-25" edge="1">
          <mxGeometry width="50" height="50" relative="1" as="geometry">
            <mxPoint x="441" y="522" as="sourcePoint" />
            <mxPoint x="365" y="490" as="targetPoint" />
            <Array as="points" />
          </mxGeometry>
        </mxCell>
        <mxCell id="bUZhal4Mzn5xRgH7IDeU-7" value="" style="endArrow=none;html=1;rounded=0;entryX=0.447;entryY=1.014;entryDx=0;entryDy=0;entryPerimeter=0;exitX=0.424;exitY=0.112;exitDx=0;exitDy=0;exitPerimeter=0;" parent="1" source="-zPG0wEFw7UELv2L5zX0-20" target="-zPG0wEFw7UELv2L5zX0-18" edge="1">
          <mxGeometry width="50" height="50" relative="1" as="geometry">
            <mxPoint x="588" y="-28" as="sourcePoint" />
            <mxPoint x="512" y="-60" as="targetPoint" />
            <Array as="points" />
          </mxGeometry>
        </mxCell>
        <mxCell id="bUZhal4Mzn5xRgH7IDeU-8" value="" style="endArrow=none;html=1;rounded=0;entryX=0.506;entryY=1.004;entryDx=0;entryDy=0;entryPerimeter=0;exitX=0.51;exitY=0.131;exitDx=0;exitDy=0;exitPerimeter=0;strokeColor=light-dark(#000000,#FF0E0E);" parent="1" source="-zPG0wEFw7UELv2L5zX0-50" target="-zPG0wEFw7UELv2L5zX0-28" edge="1">
          <mxGeometry width="50" height="50" relative="1" as="geometry">
            <mxPoint x="463" y="632" as="sourcePoint" />
            <mxPoint x="387" y="600" as="targetPoint" />
            <Array as="points" />
          </mxGeometry>
        </mxCell>
        <mxCell id="bUZhal4Mzn5xRgH7IDeU-9" value="Calculate Amount" style="ellipse;shape=umlControl;whiteSpace=wrap;html=1;" parent="1" vertex="1">
          <mxGeometry x="790" y="153" width="70" height="80" as="geometry" />
        </mxCell>
        <mxCell id="H8MXFJ4Tu4BRZ1MrDL_Y-1" value="" style="endArrow=none;html=1;rounded=0;exitX=1;exitY=0.3333333333333333;exitDx=0;exitDy=0;exitPerimeter=0;entryX=0;entryY=0.5;entryDx=0;entryDy=0;entryPerimeter=0;" edge="1" parent="1" source="-zPG0wEFw7UELv2L5zX0-1" target="H8MXFJ4Tu4BRZ1MrDL_Y-2">
          <mxGeometry width="50" height="50" relative="1" as="geometry">
            <mxPoint x="130" y="159" as="sourcePoint" />
            <mxPoint x="130" as="targetPoint" />
          </mxGeometry>
        </mxCell>
        <mxCell id="H8MXFJ4Tu4BRZ1MrDL_Y-2" value="" style="shape=umlBoundary;whiteSpace=wrap;html=1;" vertex="1" parent="1">
          <mxGeometry x="220" y="-80" width="100" height="80" as="geometry" />
        </mxCell>
        <mxCell id="H8MXFJ4Tu4BRZ1MrDL_Y-3" value="Manager Home Screen" style="text;html=1;align=center;verticalAlign=middle;resizable=1;points=[];autosize=1;strokeColor=none;fillColor=none;movable=1;rotatable=1;deletable=1;editable=1;locked=0;connectable=1;" vertex="1" parent="1">
          <mxGeometry x="205" y="-110" width="150" height="30" as="geometry" />
        </mxCell>
        <mxCell id="H8MXFJ4Tu4BRZ1MrDL_Y-4" value="Select &quot;Receipt&quot;" style="text;html=1;align=center;verticalAlign=middle;resizable=0;points=[];autosize=1;strokeColor=none;fillColor=none;rotation=-45;" vertex="1" parent="1">
          <mxGeometry x="70" y="30" width="110" height="30" as="geometry" />
        </mxCell>
        <mxCell id="H8MXFJ4Tu4BRZ1MrDL_Y-5" value="Display" style="ellipse;shape=umlControl;whiteSpace=wrap;html=1;" vertex="1" parent="1">
          <mxGeometry x="410" y="-90" width="70" height="80" as="geometry" />
        </mxCell>
        <mxCell id="H8MXFJ4Tu4BRZ1MrDL_Y-8" value="" style="endArrow=none;html=1;rounded=0;exitX=0.029;exitY=0.613;exitDx=0;exitDy=0;exitPerimeter=0;" edge="1" parent="1" source="H8MXFJ4Tu4BRZ1MrDL_Y-5">
          <mxGeometry width="50" height="50" relative="1" as="geometry">
            <mxPoint x="409" y="-39.5" as="sourcePoint" />
            <mxPoint x="323" y="-40" as="targetPoint" />
            <Array as="points" />
          </mxGeometry>
        </mxCell>
        <mxCell id="H8MXFJ4Tu4BRZ1MrDL_Y-9" value="" style="endArrow=none;html=1;rounded=0;entryX=0.471;entryY=1.025;entryDx=0;entryDy=0;entryPerimeter=0;exitX=0.56;exitY=0.05;exitDx=0;exitDy=0;exitPerimeter=0;" edge="1" parent="1" source="-zPG0wEFw7UELv2L5zX0-2" target="H8MXFJ4Tu4BRZ1MrDL_Y-5">
          <mxGeometry width="50" height="50" relative="1" as="geometry">
            <mxPoint x="569" y="71" as="sourcePoint" />
            <mxPoint x="490" y="70" as="targetPoint" />
            <Array as="points" />
          </mxGeometry>
        </mxCell>
      </root>
    </mxGraphModel>
  </diagram>
</mxfile>
